
<svg width="48" height="48" viewBox="0 0 48 48" fill="none" xmlns="http://www.w3.org/2000/svg">
  <rect width="48" height="48" rx="24" fill="#F1F8E9"/>
  <path d="M31.7 29.3L27.5 25.1C28.4 23.9 29 22.5 29 21C29 17.1 25.9 14 22 14C18.1 14 15 17.1 15 21C15 24.9 18.1 28 22 28C23.5 28 24.9 27.5 26.1 26.5L30.3 30.7C30.5 30.9 30.8 31 31 31C31.2 31 31.5 30.9 31.7 30.7C32.1 30.3 32.1 29.7 31.7 29.3ZM22 26C19.2 26 17 23.8 17 21C17 18.2 19.2 16 22 16C24.8 16 27 18.2 27 21C27 23.8 24.8 26 22 26Z" fill="#388E3C"/>
  <path d="M22 18C20.3 18 19 19.3 19 21C19 22.7 20.3 24 22 24C23.7 24 25 22.7 25 21C25 19.3 23.7 18 22 18Z" fill="#4CAF50"/>
</svg>
