
<svg width="48" height="48" viewBox="0 0 48 48" fill="none" xmlns="http://www.w3.org/2000/svg">
  <rect width="48" height="48" rx="24" fill="#F1F8E9"/>
  <path d="M32 17H29.83L28.59 15.65C28.22 15.24 27.66 15 27.07 15H20.93C20.34 15 19.78 15.24 19.4 15.65L18.17 17H16C14.9 17 14 17.9 14 19V31C14 32.1 14.9 33 16 33H32C33.1 33 34 32.1 34 31V19C34 17.9 33.1 17 32 17ZM24 29C21.24 29 19 26.76 19 24C19 21.24 21.24 19 24 19C26.76 19 29 21.24 29 24C29 26.76 26.76 29 24 29Z" fill="#388E3C"/>
  <path d="M24 21C22.34 21 21 22.34 21 24C21 25.66 22.34 27 24 27C25.66 27 27 25.66 27 24C27 22.34 25.66 21 24 21Z" fill="#4CAF50"/>
</svg>
