
<svg width="40" height="40" viewBox="0 0 40 40" fill="none" xmlns="http://www.w3.org/2000/svg">
  <rect width="40" height="40" rx="8" fill="white" fill-opacity="0.1" />
  <path d="M20 8C14.477 8 10 12.477 10 18C10 23.523 14.477 28 20 28C25.523 28 30 23.523 30 18C30 12.477 25.523 8 20 8ZM20 26C15.582 26 12 22.418 12 18C12 13.582 15.582 10 20 10C24.418 10 28 13.582 28 18C28 22.418 24.418 26 20 26Z" fill="white"/>
  <path d="M20 12C18.895 12 18 12.895 18 14C18 15.105 18.895 16 20 16C21.105 16 22 15.105 22 14C22 12.895 21.105 12 20 12Z" fill="white"/>
  <path d="M24 19.5C24 17.015 22.209 15 20 15C17.791 15 16 17.015 16 19.5C16 21.985 17.791 24 20 24C22.209 24 24 21.985 24 19.5ZM18 19.5C18 18.12 18.895 17 20 17C21.105 17 22 18.12 22 19.5C22 20.88 21.105 22 20 22C18.895 22 18 20.88 18 19.5Z" fill="white"/>
  <path d="M20 32C16.5 32 13.5 31 12 30.5C11.5 30.333 11 30 11 29.5C11 29 11.5 28.667 12 28.5C13.5 28 16.5 27 20 27C23.5 27 26.5 28 28 28.5C28.5 28.667 29 29 29 29.5C29 30 28.5 30.333 28 30.5C26.5 31 23.5 32 20 32Z" fill="#8AE78F"/>
</svg>
