
<svg width="100" height="100" viewBox="0 0 100 100" fill="none" xmlns="http://www.w3.org/2000/svg">
  <path d="M10 30C10 24.477 14.477 20 20 20C25.523 20 30 24.477 30 30C30 35.523 25.523 40 20 40C14.477 40 10 35.523 10 30Z" stroke="#388E3C" stroke-width="2"/>
  <path d="M40 70C40 64.477 44.477 60 50 60C55.523 60 60 64.477 60 70C60 75.523 55.523 80 50 80C44.477 80 40 75.523 40 70Z" stroke="#388E3C" stroke-width="2"/>
  <path d="M70 30C70 24.477 74.477 20 80 20C85.523 20 90 24.477 90 30C90 35.523 85.523 40 80 40C74.477 40 70 35.523 70 30Z" stroke="#388E3C" stroke-width="2"/>
  <path d="M20 20L80 20" stroke="#388E3C" stroke-opacity="0.5" stroke-width="1"/>
  <path d="M20 40L50 60" stroke="#388E3C" stroke-opacity="0.5" stroke-width="1"/>
  <path d="M50 80L80 40" stroke="#388E3C" stroke-opacity="0.5" stroke-width="1"/>
  <circle cx="20" cy="20" r="3" fill="#4CAF50"/>
  <circle cx="80" cy="20" r="3" fill="#4CAF50"/>
  <circle cx="50" cy="60" r="3" fill="#4CAF50"/>
  <circle cx="20" cy="40" r="3" fill="#4CAF50"/>
  <circle cx="80" cy="40" r="3" fill="#4CAF50"/>
  <circle cx="50" cy="80" r="3" fill="#4CAF50"/>
</svg>
